<svg width="256" height="71" viewBox="0 0 256 71" fill="none" xmlns="http://www.w3.org/2000/svg">
<path fill-rule="evenodd" clip-rule="evenodd" d="M21.3337 0H13.6859V7.5532H21.3337V0ZM6.84277 6.56513e-05H0V55.2577H6.84277V6.56513e-05ZM90.3639 14.3078C83.4046 14.3078 77.9804 17.8452 75.1148 22.5954C72.8633 26.3349 72.0445 30.5798 72.0445 35.3301C72.0445 40.9899 73.682 46.2455 77.0593 50.0861C80.1296 53.7246 84.735 56.0491 90.4662 56.0491C94.2529 56.0491 97.8349 54.9374 100.701 53.0171C103.976 50.7936 106.329 47.1551 106.943 43.2134H100.291C99.7795 45.3359 99.063 46.4476 97.9373 47.5594C96.2998 49.2775 93.6389 50.1872 90.4662 50.1872C87.396 50.1872 84.9397 49.1765 83.0975 47.3572C80.6413 44.9316 79.2085 40.9899 79.2085 37.3514H107.762L107.865 33.3087C107.967 27.952 106.022 22.7975 102.747 19.2601C99.6771 16.2281 95.5834 14.3078 90.3639 14.3078ZM79.3094 31.6916C79.5141 25.8296 83.0961 19.9676 90.3625 19.9676C93.9445 19.9676 96.6054 21.3826 98.3452 23.6061C99.9827 25.7285 100.801 28.7606 100.801 31.6916H79.3094ZM131.128 14.7115C126.649 14.7115 121.458 16.9294 119.117 20.8612L117.896 15.7197H112.705V70.7642H119.422V50.7022C121.56 54.3315 126.751 56.3478 131.026 56.3478C135.708 56.3478 139.372 54.7348 142.019 52.3152C146.09 48.4843 148.126 42.2338 148.126 35.3784C148.126 28.8255 146.192 22.7767 142.324 18.9457C139.881 16.3246 136.013 14.7115 131.128 14.7115ZM130.011 50.8075C127.059 50.8075 125.125 49.5978 123.497 48.1864C120.138 45.2628 119.018 40.5245 119.018 35.5846C119.018 30.6447 120.138 25.8056 123.497 22.9828C125.125 21.5714 127.059 20.3616 130.011 20.3616C138.968 20.3616 141.309 28.326 141.309 35.5846C141.309 42.8432 138.968 50.8075 130.011 50.8075ZM156.027 22.5954C158.892 17.8452 164.317 14.3078 171.276 14.3078C176.495 14.3078 180.589 16.2281 183.659 19.2601C186.934 22.7975 188.879 27.952 188.777 33.3087L188.674 37.3514H160.121C160.121 40.9899 161.553 44.9316 164.01 47.3572C165.852 49.1765 168.308 50.1872 171.378 50.1872C174.551 50.1872 177.212 49.2775 178.849 47.5594C179.975 46.4476 180.691 45.3359 181.203 43.2134H187.855C187.241 47.1551 184.888 50.7936 181.613 53.0171C178.747 54.9374 175.165 56.0491 171.378 56.0491C165.647 56.0491 161.042 53.7246 157.971 50.0861C154.594 46.2455 152.957 40.9899 152.957 35.3301C152.957 30.5798 153.775 26.3349 156.027 22.5954ZM171.274 19.9676C164.007 19.9676 160.425 25.8296 160.221 31.6916H181.713C181.713 28.7606 180.894 25.7285 179.256 23.6061C177.517 21.3826 174.856 19.9676 171.274 19.9676ZM211.524 14.3094C204.565 14.3094 199.14 17.8468 196.275 22.597C194.023 26.3366 193.205 30.5815 193.205 35.3317C193.205 40.9916 194.842 46.2471 198.219 50.0877C201.29 53.7262 205.895 56.0508 211.626 56.0508C215.413 56.0508 218.995 54.939 221.861 53.0187C225.136 50.7952 227.489 47.1567 228.104 43.2151H221.451C220.939 45.3375 220.223 46.4493 219.097 47.561C217.46 49.2792 214.799 50.1888 211.626 50.1888C208.556 50.1888 206.1 49.1781 204.258 47.3589C201.801 44.9332 200.369 40.9916 200.369 37.3531H228.922L229.025 33.3103C229.127 27.9537 227.182 22.7992 223.907 19.2618C220.837 16.2297 216.743 14.3094 211.524 14.3094ZM200.47 31.6918C200.674 25.8298 204.256 19.9678 211.523 19.9678C215.105 19.9678 217.766 21.3827 219.506 23.6063C221.143 25.7287 221.962 28.7608 221.962 31.6918H200.47ZM256 20.5612L254.47 15.7058L240.289 20.6624L239.065 15.5035H233.862V55.2572H240.595V27.0351L256 20.5612ZM13.6854 15.5035H20.5282V55.2572H13.6854V15.5035Z" fill="#191D1B"/>
<path fill-rule="evenodd" clip-rule="evenodd" d="M52.0325 14.5691H43.7073V22.8943H52.0325V14.5691ZM52.0325 47.8698H43.7073V56.195H52.0325V47.8698ZM60.3577 14.5691H68.6829V22.8943H60.3577V14.5691ZM35.3818 14.5693H27.0566V22.8945H35.3818V14.5693ZM52.0324 31.2194H60.3576V39.5446H52.0324V31.2194ZM43.7073 31.2194H35.3821V39.5446H43.7073V31.2194Z" fill="#191D1B"/>
</svg>
